<svg xmlns="http://www.w3.org/2000/svg" version="1.1" xmlns:xlink="http://www.w3.org/1999/xlink" xmlns:svgjs="http://svgjs.com/svgjs" width="1440" height="350" preserveAspectRatio="none" viewBox="0 0 1440 350"><g mask="url(&quot;#SvgjsMask1138&quot;)" fill="none"><path d="M1560 350L0 350 L0 163.65Q20.94 112.59, 72 133.53Q124.25 65.78, 192 118.02Q285.24 91.26, 312 184.51Q345.03 97.54, 432 130.57Q478.55 105.12, 504 151.66Q519.03 94.69, 576 109.73Q641.89 55.62, 696 121.52Q763.63 117.16, 768 184.79Q789.23 134.01, 840 155.24Q885.26 128.5, 912 173.77Q941.3 83.07, 1032 112.37Q1075.42 83.8, 1104 127.22Q1192.93 96.16, 1224 185.09Q1237.63 126.72, 1296 140.35Q1313.42 85.78, 1368 103.2Q1411.54 74.74, 1440 118.28Q1515.1 73.38, 1560 148.48z" fill="#182f5d"></path><path d="M1536 350L0 350 L0 224.21Q39.14 143.35, 120 182.49Q148.22 138.72, 192 166.94Q290.8 145.74, 312 244.53Q315.68 176.21, 384 179.89Q411.79 135.68, 456 163.46Q551.9 139.37, 576 235.27Q608.64 147.91, 696 180.55Q776.08 140.63, 816 220.7Q861.64 146.34, 936 191.99Q982.84 118.82, 1056 165.66Q1140.6 130.25, 1176 214.85Q1217.6 136.45, 1296 178.05Q1362.89 124.94, 1416 191.84Q1498.95 154.8, 1536 237.75z" fill="#25467d"></path><path d="M1488 350L0 350 L0 300.49Q28.25 256.75, 72 285Q102.5 195.5, 192 226Q268.82 182.82, 312 259.65Q383.87 211.52, 432 283.39Q461.94 241.32, 504 271.26Q551.73 246.99, 576 294.71Q587.92 234.63, 648 246.56Q691.07 217.63, 720 260.7Q762.21 230.91, 792 273.12Q867.41 228.53, 912 303.95Q943.13 215.08, 1032 246.22Q1057.25 199.47, 1104 224.72Q1182.07 182.79, 1224 260.86Q1283.35 248.21, 1296 307.55Q1345.74 237.29, 1416 287.03Q1431.16 230.19, 1488 245.35z" fill="#356cb1"></path><path d="M1488 350L0 350 L0 330.61Q49.82 260.43, 120 310.25Q207.09 277.34, 240 364.43Q240.79 293.22, 312 294.01Q389.43 251.44, 432 328.86Q501.59 278.45, 552 348.04Q567.67 291.72, 624 307.39Q668.22 279.61, 696 323.83Q756.15 311.98, 768 372.13Q771.74 303.87, 840 307.61Q867.57 263.18, 912 290.75Q990.69 249.44, 1032 328.14Q1103.01 279.14, 1152 350.15Q1167.26 293.41, 1224 308.67Q1268.86 281.53, 1296 326.39Q1340.51 250.9, 1416 295.42Q1474.06 281.48, 1488 339.53z" fill="rgba(10, 84, 172, 1)"></path></g><defs><mask id="SvgjsMask1138"><rect width="1440" height="350" fill="#ffffff"></rect></mask></defs></svg>